<svg width="28" height="28" viewBox="0 0 28 28" fill="none" xmlns="http://www.w3.org/2000/svg">
<path fill-rule="evenodd" clip-rule="evenodd" d="M21 18.375V12.5417C21 8.96 19.0983 5.96167 15.75 5.16833V4.375C15.75 3.40667 14.9683 2.625 14 2.625C13.0316 2.625 12.25 3.40667 12.25 4.375V5.16833C8.91329 5.96167 6.99996 8.94833 6.99996 12.5417V18.375L4.66663 20.7083V21.875H23.3333V20.7083L21 18.375ZM14 25.375C15.2833 25.375 16.3333 24.325 16.3333 23.0417H11.6666C11.6666 24.325 12.7166 25.375 14 25.375ZM9.33329 19.5417H18.6666V12.5417C18.6666 9.64833 16.905 7.29167 14 7.29167C11.095 7.29167 9.33329 9.64833 9.33329 12.5417V19.5417Z" fill="#181A1F"/>
</svg>
